HIERARCHY
ROOT pelvis
{
  OFFSET 0 100 0
  CHANNELS 6 Xposition Yposition Zposition Zrotation Xrotation Yrotation
  JOINT pelvis_right_femur
  {
    OFFSET -10.78128 -3.44521 -0.5502486
    CHANNELS 3 Zrotation Xrotation Yrotation
    JOINT right_femur_tibia
    {
      OFFSET -0.8047443 -44.0398 -0.1307829
      CHANNELS 3 Zrotation Xrotation Yrotation
      JOINT right_tibia_foot
      {
        OFFSET 3.006224 -47.83518 -5
        CHANNELS 3 Zrotation Xrotation Yrotation
        End Site
        {
          OFFSET 0 -5 15
        }
      }
    }
  }
  JOINT pelvis_left_femur
  {
    OFFSET 10.78128 -3.44521 -0.5502486
    CHANNELS 3 Zrotation Xrotation Yrotation
    JOINT left_femur_tibia
    {
      OFFSET 0.8047443 -44.0398 -0.1307829
      CHANNELS 3 Zrotation Xrotation Yrotation
      JOINT left_tibia_foot
      {
        OFFSET -4.370144 -48.10324 -4.275266
        CHANNELS 3 Zrotation Xrotation Yrotation
        End Site
        {
          OFFSET 0 -5 15
        }
      }
    }
  }
  JOINT pelvis_spine1
  {
    OFFSET 0 6.468898 -3.129235
    CHANNELS 3 Zrotation Xrotation Yrotation
    JOINT spine1
    {
      OFFSET 0 23.15396 4.99043
      CHANNELS 3 Zrotation Xrotation Yrotation
      JOINT spine2
      {
        OFFSET 0 20.79997 -5.064912
        CHANNELS 3 Zrotation Xrotation Yrotation
        JOINT neck
        {
          OFFSET 0 14.38658 9.616178
          CHANNELS 3 Zrotation Xrotation Yrotation
          End Site
          {
            OFFSET 0 20 0
          }
        }
      }
      JOINT right_manubrium
      {
        OFFSET -5.722621 16.35077 3.967754
        CHANNELS 3 Zrotation Xrotation Yrotation
        JOINT right_clavicle
        {
          OFFSET -13.16364 1.694482 -4.693211
          CHANNELS 3 Zrotation Xrotation Yrotation
          JOINT right_humerus
          {
            OFFSET -28.5034 -0.3100689 -2.792744
            CHANNELS 3 Zrotation Xrotation Yrotation
            JOINT right_radius
            {
              OFFSET -25.15693 0.02248979 -1.271978
              CHANNELS 3 Zrotation Xrotation Yrotation
              End Site
              {
                OFFSET -15 0 0
              }
            }
          }
        }
      }
      JOINT left_manubrium
      {
        OFFSET 5.722621 16.35077 3.967754
        CHANNELS 3 Zrotation Xrotation Yrotation
        JOINT left_clavicle
        {
          OFFSET 13.16364 1.694482 -4.693211
          CHANNELS 3 Zrotation Xrotation Yrotation
          JOINT left_humerus
          {
            OFFSET 29.39168 -1.063119 -2.237045
            CHANNELS 3 Zrotation Xrotation Yrotation
            JOINT left_radius
            {
              OFFSET 24.59957 -0.9528479 0.9047498
              CHANNELS 3 Zrotation Xrotation Yrotation
              End Site
              {
                OFFSET 15 -0 -0
              }
            }
          }
        }
      }
    }
  }
}
MOTION
Frames: 21
Frame Time: 0.0416666666667
351.9929 79.32994 531.8186 -4.857442 3.106401 69.46551 7.709472 -25.16328 19.2136 -0 39.65031 -0 -1.360056 -21.64546 -6.33262 -8.186783 10.19425 -22.31059 -0 5.434931 -0 20.99664 -13.25032 28.27607 7.76657 -4.771392 11.15927 5.701654 21.43998 -13.56798 1.621842 16.69399 -6.327902 -3.387067 -14.13346 -2.175528 -4.334647 -31.7817 17.11319 96.09889 3.873618 -24.06406 -0 0 27.19908 -9.912727 18.26041 1.044888 -2.782696 -31.4629 -15.71792 -93.30081 7.713258 35.63095 0 0 -23.67318 1.605706 15.64058 6.986003
353.166 79.37838 531.8333 -4.867348 3.090929 69.64749 7.709541 -25.16345 19.21363 -0 39.65028 -0 -1.360088 -21.64544 -6.33262 -8.186763 10.19427 -22.31061 -0 5.434968 -0 20.99657 -13.25041 28.27607 7.766571 -4.771392 11.15927 5.701654 21.43998 -13.56798 1.621842 16.69399 -6.327903 -3.387067 -14.13346 -2.175529 -4.334647 -31.7817 17.11319 96.0989 3.873616 -24.06406 -0 0 27.19907 -9.912727 18.26041 1.044886 -2.782697 -31.46291 -15.71792 -93.30081 7.713257 35.63095 0 0 -23.67318 1.605707 15.64058 6.986002
354.339 79.42682 531.8442 -4.877214 3.075427 69.82946 7.709622 -25.16363 19.21368 -0 39.65026 -0 -1.360129 -21.64542 -6.332622 -8.18674 10.19428 -22.31062 -0 5.435024 -0 20.99654 -13.25048 28.27606 7.766572 -4.771392 11.15927 5.701655 21.43998 -13.56798 1.621842 16.69399 -6.327903 -3.387067 -14.13346 -2.17553 -4.334647 -31.78169 17.11319 96.0989 3.873615 -24.06406 -0 0 27.19907 -9.912726 18.26041 1.044884 -2.782697 -31.46291 -15.71793 -93.30081 7.713256 35.63095 0 0 -23.67319 1.605707 15.64058 6.986001
355.5122 79.47528 531.8514 -4.887033 3.059894 70.01142 7.709712 -25.16382 19.21374 -0 39.65023 -0 -1.360176 -21.64538 -6.332627 -8.186714 10.19428 -22.31062 -0 5.435095 -0 20.99656 -13.25051 28.27606 7.766573 -4.771392 11.15927 5.701655 21.43999 -13.56798 1.621842 16.69399 -6.327904 -3.387067 -14.13346 -2.175531 -4.334647 -31.78169 17.11319 96.0989 3.873613 -24.06407 -0 0 27.19907 -9.912724 18.26041 1.044882 -2.782697 -31.46291 -15.71793 -93.30081 7.713255 35.63095 0 0 -23.67319 1.605707 15.64059 6.986001
356.6853 79.52373 531.8549 -4.896801 3.044333 70.19337 7.709804 -25.16398 19.21382 -0 39.65021 -0 -1.360227 -21.64535 -6.332633 -8.186689 10.19426 -22.3106 -0 5.435176 -0 20.99662 -13.25051 28.27605 7.766573 -4.771392 11.15927 5.701656 21.43999 -13.56798 1.621842 16.69399 -6.327905 -3.387067 -14.13346 -2.175532 -4.334647 -31.78169 17.11319 96.0989 3.873612 -24.06407 -0 0 27.19907 -9.912723 18.26041 1.044881 -2.782698 -31.46291 -15.71793 -93.30081 7.713254 35.63095 0 0 -23.67319 1.605707 15.64059 6.986001
357.8585 79.57219 531.8546 -4.906512 3.028743 70.37532 7.709892 -25.16413 19.21389 -0 39.65019 -0 -1.360277 -21.64531 -6.332641 -8.186665 10.19423 -22.31058 -0 5.435263 -0 20.99673 -13.25047 28.27603 7.766574 -4.771393 11.15927 5.701656 21.43999 -13.56798 1.621842 16.69399 -6.327906 -3.387067 -14.13346 -2.175533 -4.334647 -31.78169 17.11319 96.0989 3.87361 -24.06407 -0 0 27.19907 -9.912722 18.26041 1.044879 -2.782698 -31.46291 -15.71793 -93.30081 7.713253 35.63095 0 0 -23.67319 1.605706 15.64059 6.986001
359.0317 79.62066 531.8506 -4.916163 3.013126 70.55727 7.709971 -25.16425 19.21397 -0 39.65018 -0 -1.360324 -21.64528 -6.332649 -8.186644 10.19419 -22.31054 -0 5.435348 -0 20.99686 -13.25041 28.27602 7.766575 -4.771393 11.15927 5.701657 21.43999 -13.56798 1.621842 16.69399 -6.327907 -3.387068 -14.13346 -2.175533 -4.334647 -31.78169 17.11319 96.0989 3.873609 -24.06407 -0 0 27.19907 -9.91272 18.26041 1.044878 -2.782698 -31.46291 -15.71793 -93.30081 7.713253 35.63095 0 0 -23.67319 1.605705 15.64059 6.986002
360.2048 79.66913 531.8429 -4.925749 2.997481 70.7392 7.710036 -25.16433 19.21405 -0 39.65017 -0 -1.360365 -21.64525 -6.332658 -8.186627 10.19414 -22.3105 -0 5.435426 -0 20.99701 -13.25032 28.27601 7.766575 -4.771393 11.15927 5.701657 21.43999 -13.56798 1.621842 16.69399 -6.327908 -3.387068 -14.13346 -2.175534 -4.334647 -31.78169 17.11319 96.0989 3.873608 -24.06407 -0 0 27.19908 -9.912719 18.26041 1.044878 -2.782699 -31.46291 -15.71793 -93.30081 7.713253 35.63095 0 0 -23.6732 1.605704 15.64058 6.986003
361.378 79.7176 531.8314 -4.935269 2.98181 70.92113 7.710083 -25.16437 19.21411 -0 39.65017 -0 -1.360397 -21.64522 -6.332666 -8.186615 10.19409 -22.31046 -0 5.435494 -0 20.99718 -13.25021 28.276 7.766575 -4.771394 11.15927 5.701658 21.43999 -13.56798 1.621842 16.69399 -6.327909 -3.387069 -14.13345 -2.175534 -4.334646 -31.7817 17.11319 96.0989 3.873608 -24.06407 -0 0 27.19908 -9.912718 18.26041 1.044878 -2.782699 -31.46291 -15.71793 -93.30081 7.713253 35.63095 0 0 -23.6732 1.605703 15.64058 6.986005
362.5511 79.76608 531.8162 -4.944721 2.966111 71.10306 7.710112 -25.16437 19.21416 -0 39.65017 -0 -1.36042 -21.6452 -6.332673 -8.186609 10.19404 -22.31041 -0 5.435547 -0 20.99734 -13.2501 28.27599 7.766575 -4.771394 11.15927 5.701658 21.43999 -13.56798 1.621842 16.69399 -6.327909 -3.387069 -14.13345 -2.175535 -4.334646 -31.7817 17.11319 96.0989 3.873608 -24.06407 -0 0 27.19908 -9.912718 18.26041 1.044879 -2.7827 -31.46291 -15.71793 -93.30081 7.713253 35.63095 0 0 -23.67319 1.605702 15.64058 6.986006
363.7242 79.81456 531.7973 -4.954105 2.950386 71.28498 7.710119 -25.16434 19.21419 -0 39.65019 -0 -1.360431 -21.64519 -6.33268 -8.186608 10.194 -22.31037 -0 5.435583 -0 20.99749 -13.24998 28.27598 7.766575 -4.771394 11.15927 5.701658 21.43999 -13.56798 1.621842 16.69399 -6.32791 -3.387069 -14.13346 -2.175535 -4.334646 -31.7817 17.11319 96.0989 3.873608 -24.06407 -0 0 27.19908 -9.912717 18.26041 1.044879 -2.7827 -31.46291 -15.71793 -93.30081 7.713254 35.63095 0 0 -23.67319 1.6057 15.64058 6.986008
364.8972 79.86303 531.7746 -4.963422 2.934633 71.46689 7.710108 -25.16427 19.21421 -0 39.6502 -0 -1.360431 -21.64519 -6.332684 -8.186613 10.19396 -22.31033 -0 5.4356 -0 20.99762 -13.24987 28.27598 7.766575 -4.771394 11.15927 5.701658 21.43999 -13.56798 1.621842 16.69399 -6.32791 -3.38707 -14.13346 -2.175534 -4.334645 -31.7817 17.11319 96.09889 3.873609 -24.06407 -0 0 27.19908 -9.912717 18.26041 1.044881 -2.7827 -31.46291 -15.71793 -93.30081 7.713254 35.63096 0 0 -23.67319 1.605699 15.64058 6.98601
366.0701 79.91151 531.7482 -4.972675 2.918852 71.6488 7.710077 -25.16417 19.21421 -0 39.65022 -0 -1.36042 -21.64519 -6.332687 -8.186623 10.19393 -22.3103 -0 5.435598 -0 20.99773 -13.24977 28.27597 7.766574 -4.771394 11.15927 5.701658 21.43999 -13.56798 1.621842 16.69399 -6.327909 -3.38707 -14.13346 -2.175534 -4.334645 -31.7817 17.11319 96.09889 3.873609 -24.06406 -0 0 27.19908 -9.912718 18.26041 1.044882 -2.7827 -31.46291 -15.71793 -93.30081 7.713255 35.63096 0 0 -23.67319 1.605698 15.64058 6.986011
367.2429 79.95998 531.7181 -4.981865 2.903043 71.8307 7.710032 -25.16404 19.21419 -0 39.65024 -0 -1.3604 -21.64521 -6.332688 -8.186637 10.1939 -22.31028 -0 5.435578 -0 20.9978 -13.24968 28.27597 7.766574 -4.771394 11.15927 5.701658 21.43998 -13.56798 1.621842 16.69399 -6.327909 -3.38707 -14.13346 -2.175534 -4.334645 -31.7817 17.11319 96.09889 3.87361 -24.06406 -0 0 27.19908 -9.912718 18.26042 1.044884 -2.7827 -31.46291 -15.71792 -93.30081 7.713256 35.63096 0 0 -23.67319 1.605698 15.64058 6.986012
368.4156 80.00846 531.6842 -4.990997 2.887205 72.0126 7.709974 -25.16391 19.21416 -0 39.65026 -0 -1.360372 -21.64523 -6.332687 -8.186653 10.19389 -22.31027 -0 5.435542 -0 20.99784 -13.24962 28.27598 7.766573 -4.771394 11.15927 5.701658 21.43998 -13.56798 1.621842 16.69399 -6.327908 -3.38707 -14.13346 -2.175533 -4.334645 -31.7817 17.11319 96.09889 3.873611 -24.06406 -0 0 27.19908 -9.912719 18.26042 1.044885 -2.7827 -31.46291 -15.71792 -93.30081 7.713257 35.63096 0 0 -23.67318 1.605697 15.64058 6.986013
369.5882 80.05692 531.6466 -5.000074 2.871337 72.1945 7.709909 -25.16377 19.21412 -0 39.65028 -0 -1.360338 -21.64525 -6.332684 -8.186672 10.19389 -22.31027 -0 5.435492 -0 20.99783 -13.24959 28.27598 7.766572 -4.771393 11.15927 5.701657 21.43998 -13.56798 1.621842 16.69399 -6.327908 -3.38707 -14.13346 -2.175532 -4.334645 -31.7817 17.11319 96.09889 3.873613 -24.06406 -0 0 27.19909 -9.91272 18.26042 1.044887 -2.7827 -31.46291 -15.71792 -93.30081 7.713257 35.63096 0 0 -23.67318 1.605697 15.64058 6.986013
370.7607 80.10539 531.6052 -5.0091 2.855439 72.37639 7.70984 -25.16364 19.21407 -0 39.6503 -0 -1.360301 -21.64528 -6.33268 -8.186691 10.1939 -22.31027 -0 5.435434 -0 20.9978 -13.24958 28.27599 7.766572 -4.771393 11.15927 5.701657 21.43998 -13.56798 1.621842 16.69399 -6.327907 -3.38707 -14.13346 -2.175531 -4.334645 -31.7817 17.11319 96.09889 3.873614 -24.06406 -0 0 27.19909 -9.912721 18.26042 1.044888 -2.782699 -31.4629 -15.71792 -93.30082 7.713258 35.63096 0 0 -23.67318 1.605697 15.64058 6.986013
371.933 80.15385 531.5601 -5.018079 2.839511 72.55828 7.709772 -25.16353 19.21401 -0 39.65031 -0 -1.360263 -21.6453 -6.332675 -8.18671 10.19392 -22.31029 -0 5.435371 -0 20.99773 -13.2496 28.276 7.766571 -4.771393 11.15927 5.701657 21.43998 -13.56798 1.621842 16.69399 -6.327906 -3.38707 -14.13346 -2.175531 -4.334645 -31.7817 17.11319 96.09889 3.873615 -24.06406 -0 0 27.19909 -9.912722 18.26041 1.044889 -2.782699 -31.4629 -15.71792 -93.30082 7.713258 35.63096 0 0 -23.67318 1.605698 15.64058 6.986013
373.1052 80.2023 531.5113 -5.027013 2.823552 72.74016 7.70971 -25.16343 19.21395 -0 39.65032 -0 -1.360226 -21.64533 -6.332669 -8.186726 10.19395 -22.31031 -0 5.435306 -0 20.99764 -13.24964 28.27601 7.766571 -4.771393 11.15927 5.701656 21.43998 -13.56798 1.621842 16.69399 -6.327905 -3.387069 -14.13346 -2.17553 -4.334645 -31.7817 17.11319 96.09889 3.873616 -24.06405 -0 0 27.19908 -9.912723 18.26041 1.04489 -2.782699 -31.4629 -15.71792 -93.30082 7.713259 35.63096 0 0 -23.67318 1.605698 15.64058 6.986012
374.2772 80.25076 531.4587 -5.035907 2.807563 72.92204 7.709657 -25.16336 19.21389 -0 39.65033 -0 -1.360194 -21.64535 -6.332662 -8.18674 10.19398 -22.31034 -0 5.435245 -0 20.99753 -13.2497 28.27601 7.76657 -4.771393 11.15927 5.701656 21.43998 -13.56798 1.621842 16.69399 -6.327905 -3.387069 -14.13346 -2.17553 -4.334645 -31.7817 17.11319 96.09889 3.873617 -24.06405 -0 0 27.19908 -9.912723 18.26041 1.044891 -2.782698 -31.4629 -15.71792 -93.30082 7.713259 35.63096 0 0 -23.67318 1.605699 15.64058 6.986011
375.449 80.29921 531.4025 -5.044762 2.791541 73.10392 7.709616 -25.16331 19.21384 -0 39.65033 -0 -1.360166 -21.64537 -6.332656 -8.186751 10.19402 -22.31038 -0 5.43519 -0 20.99741 -13.24977 28.27602 7.76657 -4.771392 11.15927 5.701656 21.43998 -13.56798 1.621842 16.69399 -6.327904 -3.387069 -14.13346 -2.175529 -4.334645 -31.7817 17.11319 96.09889 3.873617 -24.06405 -0 0 27.19908 -9.912724 18.26041 1.044891 -2.782698 -31.4629 -15.71792 -93.30082 7.713259 35.63096 0 0 -23.67318 1.6057 15.64058 6.98601
